<svg xmlns="http://www.w3.org/2000/svg" width="95" height="24" fill="currentColor" class="" viewBox="0 0 190 48" aria-hidden="true"><path id="dji-store-a" d="M60.0023033,11.9986729 C58.7055598,16.8171563 57.4146437,21.6370108 56.1501217,26.4640638 C55.5176893,28.8772475 54.8969115,31.2921451 54.1688431,33.6799629 C53.4616843,35.9999099 52.5930752,38.4761655 51.3271821,40.5832451 C50.0067867,42.7821901 48.2969913,44.499184 45.9307687,45.5984852 C44.984691,46.0375887 44.0153041,46.3388938 42.9982706,46.5545036 C41.5551593,46.8602649 40.1055352,46.9860658 38.6391148,47.069019 C35.3967664,47.2517339 28.9080473,47.2469901 24.9707801,47.2438761 L23.6736053,47.2431522 L25.8992873,38.9944515 C27.5840597,38.9944515 29.2684894,39.0002788 30.952919,38.9536605 C32.5783902,38.9084133 34.3670255,38.8213467 35.9678164,38.4429157 C37.7208024,38.0281497 39.0435972,37.3165347 40.2021996,35.8902198 C41.2576247,34.5910769 41.967183,32.9700618 42.5485409,31.4412551 C43.6104788,28.6492976 44.6977826,24.6517765 45.4642427,21.7768658 C46.0421727,19.6072857 46.6051728,17.4340492 47.1651258,15.2600002 L48.0042556,11.9986729 L60.0023033,11.9986729 Z M136.162097,12 C139.540797,12 142.391576,13.1252083 144.714432,15.3742917 C147.061346,17.658038 148.233466,20.537718 148.233466,24.0066659 C148.233466,27.4676147 147.061346,30.3459616 144.714432,32.6390401 C142.391576,34.8801244 139.540797,36 136.162097,36 C132.760675,36 129.897868,34.8801244 127.575012,32.6390401 C125.229434,30.3459616 124.055978,27.4676147 124.055978,24.0066659 C124.055978,20.537718 125.229434,17.658038 127.575012,15.3742917 C129.897868,13.1252083 132.760675,12 136.162097,12 Z M95.0645089,12.033063 C98.0015155,12.033063 100.158572,13.1777063 101.53688,15.4609931 L101.681576,15.7099878 L98.8201056,17.475125 C97.9553828,15.9526275 96.7030717,15.1913787 95.0645089,15.1913787 C93.0450404,15.1913787 92.0346379,16.0979447 92.0346379,17.9110765 C92.0346379,19.2549272 93.074217,20.4083351 95.1533752,21.368941 L95.4186844,21.4880124 L96.9342882,22.1772692 C99.0660237,23.1184979 100.59232,24.0930563 101.513176,25.0996112 C102.546299,26.2741473 103.062192,27.7539829 103.062192,29.5351183 C103.062192,31.5375625 102.349832,33.1333852 100.923774,34.31992 C99.5204375,35.4397956 97.6974361,35.9997334 95.4520972,35.9997334 C93.352438,35.9997334 91.5454748,35.5184535 90.0312075,34.5545606 C88.8112592,33.7969305 87.8529056,32.7668613 87.1561468,31.4664878 L87,31.1616043 L89.9964582,29.5004555 C90.6473392,30.5643373 91.3276235,31.3362515 92.0346379,31.8175314 C92.9541577,32.4561271 94.0714811,32.7734252 95.3852716,32.7734252 C98.0903704,32.7734252 99.4429198,31.7055438 99.4429198,29.5671148 C99.4429198,28.6272192 99.111465,27.8366404 98.4485555,27.1993778 C97.9384855,26.7314298 97.0596475,26.2152015 95.8131116,25.6506928 L95.5189228,25.5195645 L93.9699062,24.8316409 C92.1068095,24.0010665 90.7596062,23.1184979 89.9296327,22.1772692 C88.9646716,21.0800578 88.482191,19.6802133 88.482191,17.979069 C88.482191,16.2432619 89.0929766,14.8194201 90.3172209,13.7128763 C91.5508208,12.594334 93.1345867,12.033063 95.0645089,12.033063 Z M75,11.9986043 L68.5255378,35.9950424 L56.5278329,35.9950424 L63.0019523,11.9986043 L75,11.9986043 Z M47.4318786,3 C46.1748978,7.68411295 44.919631,12.3685687 43.6482534,17.048911 C42.7621625,20.3094513 41.8822417,23.5713626 40.920396,26.8109932 C40.5008311,28.2232541 40.0819518,29.6314016 39.5321298,31.0025287 C39.0902841,32.1038866 38.5963356,33.0838997 37.6831649,33.9069187 C37.0010292,34.5215264 36.2571928,34.9037281 35.3909832,35.1762396 C34.2765997,35.5269054 33.1502188,35.6554485 31.9988148,35.7497135 C30.342836,35.8854551 28.6865145,35.9200761 27.0277935,35.946813 C23.2129751,36.008171 16.2853554,35.9996014 12.4705371,35.9831479 C11.0997528,35.9769778 9.72896844,35.9687511 8.35818412,35.943728 C7.36445976,35.9259034 6.37176374,35.9012231 5.3794105,35.8391796 C4.71681333,35.7973602 4.05935789,35.7418295 3.4046447,35.6211704 C2.96039952,35.5395883 2.53260786,35.4298981 2.11578522,35.247881 C0.742944216,34.6480129 0.0433266136,33.4489623 0.0025355824,31.9887119 C-0.0211163601,31.1530099 0.124223112,30.3570707 0.291500618,29.5487912 C0.529048388,28.4039001 0.82486906,27.2747769 1.11794748,26.1442826 C1.67736733,23.9844147 2.70125649,19.9992338 3.49925247,17.9014093 C4.12448642,16.2574279 4.95024772,14.6213305 6.5191599,13.580645 C7.39633846,12.9989444 8.31807865,12.6897552 9.33442661,12.4851145 C10.087861,12.3336049 10.8450659,12.253394 11.6091265,12.1964922 C12.8887308,12.1015417 14.1693635,12.0717197 15.4513674,12.0490961 C17.2732525,12.0172174 19.0951376,12.0103617 20.9170228,12.0048772 C23.9468709,11.9966505 26.976719,11.9987071 30.0062243,11.9987071 C29.4666858,13.9981532 28.9271473,15.9979421 28.3876088,17.997731 C25.6864884,17.997731 22.9860536,17.9901898 20.2849332,18.0059577 C19.4965351,18.0107567 18.7091654,18.0049294 17.9214529,18.0563467 C17.6417429,18.0745141 17.3685458,18.0926815 17.098091,18.1872893 C16.7422835,18.3106907 16.5664365,18.5341845 16.410128,18.8550282 C16.1814926,19.3246392 16.0495216,19.8199589 15.9038393,20.3156213 C15.681374,21.0724835 15.4753621,21.8338018 15.2690075,22.5954629 C14.9512488,23.7688049 14.6334901,24.942147 14.3318421,26.1199451 C14.220438,26.5559636 14.1110906,26.991982 14.0171684,27.4321138 C13.9510116,27.7406174 13.8913675,28.0480926 13.8618883,28.3627663 C13.8296668,28.7069192 13.8197261,29.120314 14.0281375,29.4397866 C14.2399766,29.7640582 14.5981835,29.8394702 14.9323958,29.8878024 C15.3101413,29.9429903 15.6885724,29.9549876 16.0683746,29.9662994 C16.6901807,29.9851524 17.3119869,29.9878947 17.933793,29.9909797 C19.6350189,29.9992065 21.3362449,29.9995493 23.0374708,29.988923 C23.8214128,29.9841241 24.6046691,29.9786396 25.3879255,29.9471036 C25.927464,29.9255084 26.4601469,29.9069982 26.9914586,29.778455 C27.3952555,29.6807622 27.7109576,29.527196 27.9841546,29.1970971 C28.168914,28.9736034 28.2895732,28.7257722 28.3999489,28.4625158 C28.6741743,27.8098593 28.8657894,27.1342364 29.0656311,26.4589563 C29.832434,23.8685544 30.5231392,21.2582712 31.2289269,18.651073 L33.3367777,10.827079 L33.3367777,10.827079 L35.4338309,3 L47.4318786,3 Z M122.663466,12.3023664 L122.663466,15.51001 L115.709598,15.51001 L115.709598,35.6971003 L112.088989,35.6971003 L112.088989,15.51001 L105.119083,15.51001 L105.119083,12.3023664 L122.663466,12.3023664 Z M188.529548,12.3024997 L188.529548,15.5101433 L177.281469,15.5101433 L177.281469,22.3787135 L187.24917,22.3787135 L187.24917,25.5196978 L177.281469,25.5196978 L177.281469,32.5055883 L189,32.5055883 L189,35.6972336 L173.628784,35.6972336 L173.628784,12.3024997 L188.529548,12.3024997 Z M160.449046,12.3019664 C162.996436,12.3019664 165.017241,12.9005666 166.510124,14.0991001 C168.148687,15.3882902 168.967968,17.2680813 168.967968,19.7411399 C168.967968,23.009302 167.474964,25.2093881 164.487736,26.3413982 L164.203306,26.4443951 L169.72577,35.6967004 L165.550509,35.6967004 L160.482458,27.0309966 L156.240372,27.0309966 L156.240372,35.6967004 L152.58635,35.6967004 L152.58635,12.3019664 L160.449046,12.3019664 Z M136.162097,15.2569714 C133.725637,15.2569714 131.711514,16.0982113 130.117056,17.7780247 C128.557347,19.421842 127.776825,21.4989446 127.776825,24.0066659 C127.776825,26.5037218 128.557347,28.5768248 130.117056,30.2219753 C131.711514,31.9017887 133.725637,32.7416954 136.162097,32.7416954 C138.59722,32.7416954 140.595304,31.9017887 142.15635,30.2219753 C143.716058,28.5768248 144.496581,26.5037218 144.496581,24.0066659 C144.496581,21.4989446 143.716058,19.421842 142.15635,17.7780247 C140.595304,16.0982113 138.59722,15.2569714 136.162097,15.2569714 Z M160.314058,15.50961 L156.240372,15.50961 L156.240372,23.9740029 L160.314058,23.9740029 C163.580491,23.9740029 165.213708,22.5634929 165.213708,19.7411399 C165.213708,16.92012 163.580491,15.50961 160.314058,15.50961 L160.314058,15.50961 Z"></path></svg>